# xmcd
#
# Track frame offsets:
# 150
# 15557
# 30072
# 44237
# 64582
# 82242
# 96552
# 113277
# 128417
# 139475
# 154007
# 169790
#
# Disc length: 2427 seconds
#
#
# Revision: 0
# Processed by: cddbd v1.5.1PL0 Copyright (c) Steve Scherf et al.
# Submitted via: FreeRIP 2.941 
#
DISCID=9609790c
DTITLE=Amado Batista - Amar, amar
DYEAR=1997
DGENRE=Sertanejo
TTITLE0=Tanto amor
TTITLE1=Amar, amar
TTITLE2=Quem é você
TTITLE3=Aeromoça
TTITLE4=Amor pra valer
TTITLE5=Queria lhe dizer cantando
TTITLE6=Homem descartável
TTITLE7=Madrugada na cidade
TTITLE8=Buraco negro
TTITLE9=Aceite meu coração
TTITLE10=Ninguém vai te amar como eu
TTITLE11=Bem mais feliz
EXTD=funcho01@hotmail.com
EXTT0=
EXTT1=
EXTT2=
EXTT3=
EXTT4=
EXTT5=
EXTT6=
EXTT7=
EXTT8=
EXTT9=
EXTT10=
EXTT11=
PLAYORDER=
